<mxfile host="65bd71144e">
    <diagram id="AvYSxzY92IIhxPEVMShM" name="Page-1">
        <mxGraphModel dx="888" dy="1003" grid="1" gridSize="10" guides="1" tooltips="1" connect="1" arrows="1" fold="1" page="1" pageScale="1" pageWidth="827" pageHeight="1169" math="0" shadow="0">
            <root>
                <mxCell id="0"/>
                <mxCell id="1" parent="0"/>
                <mxCell id="2" value="e" style="text;html=1;strokeColor=none;fillColor=#FF3333;align=center;verticalAlign=middle;whiteSpace=wrap;rounded=0;" parent="1" vertex="1">
                    <mxGeometry x="90" y="120" width="40" height="30" as="geometry"/>
                </mxCell>
                <mxCell id="3" value="s" style="text;html=1;strokeColor=none;fillColor=#FF3333;align=center;verticalAlign=middle;whiteSpace=wrap;rounded=0;" parent="1" vertex="1">
                    <mxGeometry x="140" y="120" width="40" height="30" as="geometry"/>
                </mxCell>
                <mxCell id="4" value="c" style="text;html=1;strokeColor=none;fillColor=#FF3333;align=center;verticalAlign=middle;whiteSpace=wrap;rounded=0;" parent="1" vertex="1">
                    <mxGeometry x="190" y="120" width="40" height="30" as="geometry"/>
                </mxCell>
                <mxCell id="5" value="a" style="text;html=1;strokeColor=none;fillColor=#FF3333;align=center;verticalAlign=middle;whiteSpace=wrap;rounded=0;" parent="1" vertex="1">
                    <mxGeometry x="240" y="120" width="40" height="30" as="geometry"/>
                </mxCell>
                <mxCell id="6" value="r" style="text;html=1;strokeColor=none;fillColor=#FF3333;align=center;verticalAlign=middle;whiteSpace=wrap;rounded=0;" parent="1" vertex="1">
                    <mxGeometry x="290" y="120" width="40" height="30" as="geometry"/>
                </mxCell>
                <mxCell id="7" value="c" style="text;html=1;strokeColor=none;fillColor=#FF3333;align=center;verticalAlign=middle;whiteSpace=wrap;rounded=0;" parent="1" vertex="1">
                    <mxGeometry x="340" y="120" width="40" height="30" as="geometry"/>
                </mxCell>
                <mxCell id="8" value="e" style="text;html=1;strokeColor=none;fillColor=#FF3333;align=center;verticalAlign=middle;whiteSpace=wrap;rounded=0;" parent="1" vertex="1">
                    <mxGeometry x="390" y="120" width="40" height="30" as="geometry"/>
                </mxCell>
                <mxCell id="9" value="l" style="text;html=1;strokeColor=none;fillColor=#FF3333;align=center;verticalAlign=middle;whiteSpace=wrap;rounded=0;" parent="1" vertex="1">
                    <mxGeometry x="440" y="120" width="40" height="30" as="geometry"/>
                </mxCell>
                <mxCell id="10" value="e" style="text;html=1;strokeColor=none;fillColor=#FF3333;align=center;verticalAlign=middle;whiteSpace=wrap;rounded=0;" parent="1" vertex="1">
                    <mxGeometry x="90" y="220" width="40" height="30" as="geometry"/>
                </mxCell>
                <mxCell id="11" value="s" style="text;html=1;strokeColor=none;fillColor=#FFFF33;align=center;verticalAlign=middle;whiteSpace=wrap;rounded=0;" parent="1" vertex="1">
                    <mxGeometry x="140" y="220" width="40" height="30" as="geometry"/>
                </mxCell>
                <mxCell id="12" value="c" style="text;html=1;strokeColor=none;fillColor=#FFFF33;align=center;verticalAlign=middle;whiteSpace=wrap;rounded=0;" parent="1" vertex="1">
                    <mxGeometry x="190" y="220" width="40" height="30" as="geometry"/>
                </mxCell>
                <mxCell id="13" value="a" style="text;html=1;strokeColor=none;fillColor=#FFFF33;align=center;verticalAlign=middle;whiteSpace=wrap;rounded=0;" parent="1" vertex="1">
                    <mxGeometry x="240" y="220" width="40" height="30" as="geometry"/>
                </mxCell>
                <mxCell id="14" value="r" style="text;html=1;strokeColor=none;fillColor=#FFFF33;align=center;verticalAlign=middle;whiteSpace=wrap;rounded=0;" parent="1" vertex="1">
                    <mxGeometry x="290" y="220" width="40" height="30" as="geometry"/>
                </mxCell>
                <mxCell id="15" value="c" style="text;html=1;strokeColor=none;fillColor=#E6E6E6;align=center;verticalAlign=middle;whiteSpace=wrap;rounded=0;" parent="1" vertex="1">
                    <mxGeometry x="340" y="220" width="40" height="30" as="geometry"/>
                </mxCell>
                <mxCell id="16" value="e" style="text;html=1;strokeColor=none;fillColor=#FFFF33;align=center;verticalAlign=middle;whiteSpace=wrap;rounded=0;" parent="1" vertex="1">
                    <mxGeometry x="390" y="220" width="40" height="30" as="geometry"/>
                </mxCell>
                <mxCell id="17" value="l" style="text;html=1;strokeColor=none;fillColor=#FFFF33;align=center;verticalAlign=middle;whiteSpace=wrap;rounded=0;" parent="1" vertex="1">
                    <mxGeometry x="440" y="220" width="40" height="30" as="geometry"/>
                </mxCell>
                <mxCell id="30" value="l" style="text;html=1;strokeColor=none;fillColor=#FF3333;align=center;verticalAlign=middle;whiteSpace=wrap;rounded=0;" vertex="1" parent="1">
                    <mxGeometry x="490" y="120" width="40" height="30" as="geometry"/>
                </mxCell>
                <mxCell id="31" value="e" style="text;html=1;strokeColor=none;fillColor=#FF3333;align=center;verticalAlign=middle;whiteSpace=wrap;rounded=0;" vertex="1" parent="1">
                    <mxGeometry x="540" y="120" width="40" height="30" as="geometry"/>
                </mxCell>
                <mxCell id="32" value="l" style="text;html=1;strokeColor=none;fillColor=#E6E6E6;align=center;verticalAlign=middle;whiteSpace=wrap;rounded=0;" vertex="1" parent="1">
                    <mxGeometry x="490" y="220" width="40" height="30" as="geometry"/>
                </mxCell>
                <mxCell id="33" value="e" style="text;html=1;strokeColor=none;fillColor=#FFFF33;align=center;verticalAlign=middle;whiteSpace=wrap;rounded=0;" vertex="1" parent="1">
                    <mxGeometry x="540" y="220" width="40" height="30" as="geometry"/>
                </mxCell>
                <mxCell id="37" value="e" style="text;html=1;strokeColor=none;fillColor=#FF3333;align=center;verticalAlign=middle;whiteSpace=wrap;rounded=0;" vertex="1" parent="1">
                    <mxGeometry x="90" y="170" width="40" height="30" as="geometry"/>
                </mxCell>
                <mxCell id="38" value="c" style="text;html=1;strokeColor=none;fillColor=#FFFF33;align=center;verticalAlign=middle;whiteSpace=wrap;rounded=0;" vertex="1" parent="1">
                    <mxGeometry x="140" y="170" width="40" height="30" as="geometry"/>
                </mxCell>
                <mxCell id="39" value="a" style="text;html=1;strokeColor=none;fillColor=#FFFF33;align=center;verticalAlign=middle;whiteSpace=wrap;rounded=0;" vertex="1" parent="1">
                    <mxGeometry x="190" y="170" width="40" height="30" as="geometry"/>
                </mxCell>
                <mxCell id="40" value="r" style="text;html=1;strokeColor=none;fillColor=#FFFF33;align=center;verticalAlign=middle;whiteSpace=wrap;rounded=0;" vertex="1" parent="1">
                    <mxGeometry x="240" y="170" width="40" height="30" as="geometry"/>
                </mxCell>
                <mxCell id="41" value="t" style="text;html=1;strokeColor=none;fillColor=#66B2FF;align=center;verticalAlign=middle;whiteSpace=wrap;rounded=0;" vertex="1" parent="1">
                    <mxGeometry x="290" y="170" width="40" height="30" as="geometry"/>
                </mxCell>
                <mxCell id="42" value="e" style="text;html=1;strokeColor=none;fillColor=#FFFF33;align=center;verticalAlign=middle;whiteSpace=wrap;rounded=0;" vertex="1" parent="1">
                    <mxGeometry x="340" y="170" width="40" height="30" as="geometry"/>
                </mxCell>
                <mxCell id="43" value="l" style="text;html=1;strokeColor=none;fillColor=#FFFF33;align=center;verticalAlign=middle;whiteSpace=wrap;rounded=0;" vertex="1" parent="1">
                    <mxGeometry x="390" y="170" width="40" height="30" as="geometry"/>
                </mxCell>
                <mxCell id="44" value="e" style="text;html=1;strokeColor=none;fillColor=#FFFF33;align=center;verticalAlign=middle;whiteSpace=wrap;rounded=0;" vertex="1" parent="1">
                    <mxGeometry x="440" y="170" width="40" height="30" as="geometry"/>
                </mxCell>
                <mxCell id="45" value="e" style="text;html=1;strokeColor=none;fillColor=#66B2FF;align=center;verticalAlign=middle;whiteSpace=wrap;rounded=0;" vertex="1" parent="1">
                    <mxGeometry x="490" y="170" width="40" height="30" as="geometry"/>
                </mxCell>
                <mxCell id="46" value="s" style="text;html=1;strokeColor=none;fillColor=#FFFF33;align=center;verticalAlign=middle;whiteSpace=wrap;rounded=0;" vertex="1" parent="1">
                    <mxGeometry x="540" y="170" width="40" height="30" as="geometry"/>
                </mxCell>
                <mxCell id="47" value="" style="ellipse;whiteSpace=wrap;html=1;strokeColor=default;fillColor=none;" vertex="1" parent="1">
                    <mxGeometry x="444" y="174" width="30" height="20" as="geometry"/>
                </mxCell>
                <mxCell id="48" value="" style="ellipse;whiteSpace=wrap;html=1;strokeColor=default;fillColor=none;" vertex="1" parent="1">
                    <mxGeometry x="444" y="224" width="30" height="20" as="geometry"/>
                </mxCell>
                <mxCell id="49" value="" style="ellipse;whiteSpace=wrap;html=1;strokeColor=default;fillColor=none;" vertex="1" parent="1">
                    <mxGeometry x="394" y="224" width="30" height="20" as="geometry"/>
                </mxCell>
                <mxCell id="50" value="" style="ellipse;whiteSpace=wrap;html=1;strokeColor=default;fillColor=none;" vertex="1" parent="1">
                    <mxGeometry x="394" y="174" width="30" height="20" as="geometry"/>
                </mxCell>
                <mxCell id="51" value="" style="ellipse;whiteSpace=wrap;html=1;strokeColor=default;fillColor=none;" vertex="1" parent="1">
                    <mxGeometry x="294" y="224" width="30" height="20" as="geometry"/>
                </mxCell>
                <mxCell id="52" value="" style="ellipse;whiteSpace=wrap;html=1;strokeColor=default;fillColor=none;" vertex="1" parent="1">
                    <mxGeometry x="244" y="224" width="30" height="20" as="geometry"/>
                </mxCell>
                <mxCell id="53" value="" style="ellipse;whiteSpace=wrap;html=1;strokeColor=default;fillColor=none;" vertex="1" parent="1">
                    <mxGeometry x="194" y="224" width="30" height="20" as="geometry"/>
                </mxCell>
                <mxCell id="54" value="" style="ellipse;whiteSpace=wrap;html=1;strokeColor=default;fillColor=none;" vertex="1" parent="1">
                    <mxGeometry x="144" y="224" width="30" height="20" as="geometry"/>
                </mxCell>
                <mxCell id="55" value="" style="ellipse;whiteSpace=wrap;html=1;strokeColor=default;fillColor=none;" vertex="1" parent="1">
                    <mxGeometry x="244" y="174" width="30" height="20" as="geometry"/>
                </mxCell>
                <mxCell id="56" value="" style="ellipse;whiteSpace=wrap;html=1;strokeColor=default;fillColor=none;" vertex="1" parent="1">
                    <mxGeometry x="194" y="174" width="30" height="20" as="geometry"/>
                </mxCell>
                <mxCell id="57" value="" style="ellipse;whiteSpace=wrap;html=1;strokeColor=default;fillColor=none;" vertex="1" parent="1">
                    <mxGeometry x="144" y="174" width="30" height="20" as="geometry"/>
                </mxCell>
                <mxCell id="58" value="" style="ellipse;whiteSpace=wrap;html=1;strokeColor=default;fillColor=none;" vertex="1" parent="1">
                    <mxGeometry x="344" y="174" width="30" height="20" as="geometry"/>
                </mxCell>
                <mxCell id="59" value="" style="ellipse;whiteSpace=wrap;html=1;strokeColor=default;fillColor=none;" vertex="1" parent="1">
                    <mxGeometry x="544" y="174" width="30" height="20" as="geometry"/>
                </mxCell>
                <mxCell id="60" value="" style="ellipse;whiteSpace=wrap;html=1;strokeColor=default;fillColor=none;" vertex="1" parent="1">
                    <mxGeometry x="544" y="224" width="30" height="20" as="geometry"/>
                </mxCell>
                <mxCell id="61" value="" style="curved=1;endArrow=classic;html=1;entryX=0;entryY=1;entryDx=0;entryDy=0;exitX=0;exitY=1;exitDx=0;exitDy=0;" edge="1" parent="1" source="59" target="54">
                    <mxGeometry width="50" height="50" relative="1" as="geometry">
                        <mxPoint x="210" y="280" as="sourcePoint"/>
                        <mxPoint x="144" y="140" as="targetPoint"/>
                        <Array as="points">
                            <mxPoint x="530" y="210"/>
                            <mxPoint x="440" y="210"/>
                            <mxPoint x="390" y="210"/>
                            <mxPoint x="100" y="220"/>
                        </Array>
                    </mxGeometry>
                </mxCell>
                <mxCell id="62" value="" style="endArrow=classic;startArrow=classic;html=1;exitX=1;exitY=1;exitDx=0;exitDy=0;entryX=0;entryY=0;entryDx=0;entryDy=0;" edge="1" parent="1" source="57" target="53">
                    <mxGeometry width="50" height="50" relative="1" as="geometry">
                        <mxPoint x="170" y="180" as="sourcePoint"/>
                        <mxPoint x="220" y="130" as="targetPoint"/>
                    </mxGeometry>
                </mxCell>
                <mxCell id="63" value="" style="endArrow=classic;startArrow=classic;html=1;exitX=0;exitY=0;exitDx=0;exitDy=0;entryX=1;entryY=1;entryDx=0;entryDy=0;" edge="1" parent="1" source="51" target="55">
                    <mxGeometry width="50" height="50" relative="1" as="geometry">
                        <mxPoint x="219.76371037443334" y="227.03524622830798" as="sourcePoint"/>
                        <mxPoint x="248.23628962556666" y="190.96475377169202" as="targetPoint"/>
                    </mxGeometry>
                </mxCell>
                <mxCell id="64" value="" style="endArrow=classic;startArrow=classic;html=1;exitX=0;exitY=0;exitDx=0;exitDy=0;entryX=1;entryY=1;entryDx=0;entryDy=0;" edge="1" parent="1" source="52" target="56">
                    <mxGeometry width="50" height="50" relative="1" as="geometry">
                        <mxPoint x="269.76371037443334" y="227.03524622830798" as="sourcePoint"/>
                        <mxPoint x="298.23628962556666" y="190.96475377169202" as="targetPoint"/>
                    </mxGeometry>
                </mxCell>
                <mxCell id="65" value="" style="endArrow=classic;startArrow=classic;html=1;exitX=0;exitY=0;exitDx=0;exitDy=0;entryX=1;entryY=1;entryDx=0;entryDy=0;" edge="1" parent="1" source="49" target="58">
                    <mxGeometry width="50" height="50" relative="1" as="geometry">
                        <mxPoint x="369.76371037443334" y="227.03524622830798" as="sourcePoint"/>
                        <mxPoint x="398.23628962556666" y="190.96475377169202" as="targetPoint"/>
                    </mxGeometry>
                </mxCell>
                <mxCell id="66" value="" style="endArrow=classic;startArrow=classic;html=1;exitX=0;exitY=0;exitDx=0;exitDy=0;entryX=1;entryY=1;entryDx=0;entryDy=0;" edge="1" parent="1" source="48" target="50">
                    <mxGeometry width="50" height="50" relative="1" as="geometry">
                        <mxPoint x="419.76371037443323" y="227.03524622830798" as="sourcePoint"/>
                        <mxPoint x="448.23628962556677" y="190.96475377169202" as="targetPoint"/>
                    </mxGeometry>
                </mxCell>
                <mxCell id="67" value="" style="endArrow=classic;startArrow=classic;html=1;exitX=1;exitY=1;exitDx=0;exitDy=0;entryX=0;entryY=0;entryDx=0;entryDy=0;" edge="1" parent="1" source="47" target="60">
                    <mxGeometry width="50" height="50" relative="1" as="geometry">
                        <mxPoint x="469.76371037443323" y="177.03524622830798" as="sourcePoint"/>
                        <mxPoint x="498.23628962556677" y="140.96475377169202" as="targetPoint"/>
                    </mxGeometry>
                </mxCell>
            </root>
        </mxGraphModel>
    </diagram>
</mxfile>